<svg width="220" height="126" viewBox="0 0 220 126" fill="none" xmlns="http://www.w3.org/2000/svg">
<path d="M6.10352e-05 61.4916C6.10352e-05 51.635 7.98134 43.6826 17.8736 43.6826C27.7659 43.6826 35.7472 51.635 35.7472 61.4916C35.7472 90.6133 55.307 115.143 81.9487 122.871C76.3281 124.551 70.2578 125.447 64.0751 125.447C28.6652 125.335 6.10352e-05 96.6616 6.10352e-05 61.4916Z" fill="#FF5733"/>
<path d="M19.4474 107.302C12.5902 100.47 12.5902 89.3811 19.4474 82.5487C26.3045 75.7163 37.4334 75.7163 44.2905 82.5487C64.6372 102.822 95.4381 106.406 119.494 93.1893C116.684 98.2296 113.087 103.046 108.815 107.302C84.0845 131.944 44.0657 131.944 19.4474 107.302Z" fill="#FFC301"/>
<path d="M63.9627 125.447C54.2952 125.447 46.314 117.607 46.314 107.862C46.314 98.2297 54.1828 90.2773 63.9627 90.2773C92.7403 90.2773 117.021 71.1241 124.665 44.8026C126.239 50.4029 127.138 56.2273 127.138 62.3876C127.138 97.3336 98.923 125.447 63.9627 125.447Z" fill="#FF5733"/>
<path d="M219.429 61.4916C219.429 51.635 211.448 43.6826 201.555 43.6826C191.663 43.6826 183.682 51.635 183.682 61.4916C183.682 90.6133 164.122 115.143 137.48 122.871C143.101 124.551 149.171 125.447 155.354 125.447C190.764 125.335 219.429 96.6616 219.429 61.4916Z" fill="#FF5733"/>
<path d="M200.094 107.302C206.951 100.47 206.951 89.3811 200.094 82.5487C193.237 75.7163 182.108 75.7163 175.251 82.5487C154.904 102.822 124.103 106.406 100.047 93.1893C102.857 98.2296 106.455 103.046 110.726 107.302C135.345 131.944 175.363 131.944 200.094 107.302Z" fill="#FFC301"/>
<path d="M155.466 125.447C165.134 125.447 173.115 117.607 173.115 107.862C173.115 98.2297 165.246 90.2773 155.466 90.2773C126.689 90.2773 102.408 71.1241 94.7637 44.8026C93.1899 50.4029 92.2906 56.2273 92.2906 62.3876C92.2906 97.3336 120.619 125.447 155.466 125.447Z" fill="#FF5733"/>
<path d="M111.064 107.974C117.921 114.807 129.162 114.807 136.019 107.974C142.876 101.142 142.876 89.9412 136.019 83.1088C115.56 62.7237 112.075 32.0339 125.34 8.06451C120.281 10.8647 115.448 14.4489 111.064 18.7051C86.3328 43.3465 86.3328 83.3329 111.064 107.974Z" fill="#FFC301"/>
<path d="M109.715 106.63C109.265 107.078 108.815 107.526 108.366 107.974C107.916 108.422 107.466 108.87 106.904 109.206C106.455 108.87 105.893 108.422 105.443 107.974C96.6747 99.2378 90.9417 88.5971 88.4686 77.2845C90.0424 75.2684 91.5038 73.1402 92.8527 70.9001C94.5389 84.0048 100.16 96.5496 109.715 106.63Z" fill="#FFC301"/>
<path d="M92.0659 63.2836C92.0659 73.0282 99.9347 80.8687 109.715 80.8687C119.494 80.8687 127.363 73.0282 127.363 63.2836C127.363 34.498 146.698 10.3046 173.115 2.68818C167.495 1.12009 161.649 0.224025 155.466 0.224025C120.394 0.112018 92.0659 28.4496 92.0659 63.2836Z" fill="#FF5733"/>
<path d="M135.794 43.7946C145.349 34.274 157.265 28.4497 169.63 26.2095C170.305 22.8493 171.879 19.6012 174.577 16.913C179.748 11.7607 187.167 10.5286 193.462 12.8807C168.619 -5.60033 133.321 -3.58419 110.839 18.9291C103.982 25.7615 103.982 36.9622 110.839 43.7946C117.808 50.6269 128.937 50.6269 135.794 43.7946Z" fill="#FFC301"/>
<path d="M155.129 35.282C168.619 35.282 181.209 39.5383 191.551 46.7067C194.361 44.8026 197.846 43.5705 201.668 43.5705C208.862 43.5705 215.157 47.8268 217.968 53.9871C213.471 23.4094 187.167 0 155.242 0C145.462 0 137.593 7.84047 137.593 17.585C137.48 27.4416 145.462 35.282 155.129 35.282Z" fill="#FF5733"/>
<path d="M174.577 42.1144C178.623 46.1466 182.108 50.6269 184.806 55.4431C187.279 48.6107 193.799 43.6824 201.556 43.6824C209.087 43.6824 215.495 48.2747 218.08 54.7711C216.506 40.9943 210.436 27.5536 199.757 16.913C192.787 9.96855 181.434 9.96855 174.464 16.913C167.607 23.9694 167.607 35.17 174.577 42.1144Z" fill="#FFC301"/>
<path d="M108.366 107.974C101.509 114.807 90.2673 114.807 83.4101 107.974C76.553 101.142 76.553 89.9412 83.4101 83.1088C103.869 62.7237 107.354 32.0339 94.0893 8.06451C99.1479 10.8647 103.982 14.4489 108.366 18.7051C133.096 43.3465 133.096 83.3329 108.366 107.974Z" fill="#FFC301"/>
<path opacity="0.1" d="M109.715 106.63C109.265 107.078 108.815 107.526 108.366 107.974C107.916 108.422 107.466 108.87 106.904 109.206C106.455 108.87 105.893 108.422 105.443 107.974C96.6747 99.2378 90.9417 88.5971 88.4686 77.2845C90.0424 75.2684 91.5038 73.1402 92.8527 70.9001C94.5389 84.0048 100.16 96.5496 109.715 106.63Z" fill="black"/>
<path d="M127.363 63.2836C127.363 73.0282 119.494 80.8687 109.715 80.8687C99.9347 80.8687 92.0658 73.0282 92.0658 63.2836C92.0658 34.498 72.7309 10.3046 46.314 2.68818C51.9346 1.12009 57.78 0.224025 63.9627 0.224025C99.0354 0.112018 127.363 28.4496 127.363 63.2836Z" fill="#FF5733"/>
<path d="M83.6349 43.7946C74.0799 34.274 62.1641 28.4497 49.7988 26.2095C49.1243 22.8493 47.5505 19.6012 44.8526 16.913C39.6817 11.7607 32.2624 10.5286 25.9673 12.8807C50.8105 -5.60033 86.108 -3.58419 108.59 18.9291C115.448 25.7615 115.448 36.9622 108.59 43.7946C101.733 50.6269 90.4921 50.6269 83.6349 43.7946Z" fill="#FFC301"/>
<path d="M64.2999 35.282C50.8104 35.282 38.2202 39.5383 27.8783 46.7067C25.068 44.8026 21.5832 43.5705 17.7612 43.5705C10.5668 43.5705 4.27168 47.8268 1.46136 53.9871C5.95786 23.4094 32.2624 0 64.1875 0C73.9674 0 81.8362 7.84047 81.8362 17.585C81.9487 27.4416 74.0798 35.282 64.2999 35.282Z" fill="#FF5733"/>
<path d="M44.8526 42.1144C40.8057 46.1466 37.321 50.6269 34.6231 55.4431C32.15 48.6107 25.6301 43.6824 17.8736 43.6824C10.342 43.6824 3.93448 48.2747 1.349 54.7711C2.92277 40.9943 8.99303 27.5536 19.6722 16.913C26.6418 9.96855 37.9954 9.96855 44.965 16.913C51.8222 23.9694 51.8222 35.17 44.8526 42.1144Z" fill="#FFC301"/>
<path opacity="0.25" d="M127.363 62.3876C127.476 57.3473 128.15 52.5311 129.274 47.8268C128.15 48.2748 126.914 48.4988 125.677 48.7228C126.689 53.2031 127.251 57.7954 127.363 62.3876Z" fill="black"/>
<path opacity="0.1" d="M133.321 45.9226C130.511 47.6027 129.387 47.9388 129.387 47.9388C128.263 48.3868 127.026 48.6108 125.79 48.8349C123.204 37.8582 117.583 27.8896 110.052 19.9371C110.389 19.6011 110.614 19.2651 110.951 18.9291C113.199 16.689 115.448 14.7849 117.921 12.9928C124.328 21.5053 130.736 35.9541 133.321 45.9226Z" fill="black"/>
</svg>
